<mxfile host="app.diagrams.net" agent="Mozilla/5.0 (Macintosh; Intel Mac OS X 10_15_7) AppleWebKit/537.36 (KHTML, like Gecko) Chrome/130.0.0.0 Safari/537.36" version="24.7.17">
  <diagram name="Page-1" id="PTpZYffYQ00e8gNU1o9Q">
    <mxGraphModel dx="954" dy="605" grid="1" gridSize="10" guides="1" tooltips="1" connect="1" arrows="1" fold="1" page="1" pageScale="1" pageWidth="827" pageHeight="1169" math="0" shadow="0">
      <root>
        <mxCell id="0" />
        <mxCell id="1" parent="0" />
        <mxCell id="JFBkRAcelTBhgvE8gBId-1" value="" style="rounded=1;whiteSpace=wrap;html=1;" vertex="1" parent="1">
          <mxGeometry x="190" y="60" width="400" height="530" as="geometry" />
        </mxCell>
        <mxCell id="JFBkRAcelTBhgvE8gBId-2" value="" style="rounded=0;whiteSpace=wrap;html=1;" vertex="1" parent="1">
          <mxGeometry x="190" y="60" width="190" height="110" as="geometry" />
        </mxCell>
        <mxCell id="JFBkRAcelTBhgvE8gBId-3" value="" style="rounded=0;whiteSpace=wrap;html=1;" vertex="1" parent="1">
          <mxGeometry x="410" y="250" width="160" height="120" as="geometry" />
        </mxCell>
        <mxCell id="JFBkRAcelTBhgvE8gBId-5" value="Text" style="text;html=1;align=center;verticalAlign=middle;whiteSpace=wrap;rounded=0;" vertex="1" parent="1">
          <mxGeometry x="410" y="260" width="60" height="30" as="geometry" />
        </mxCell>
        <mxCell id="JFBkRAcelTBhgvE8gBId-7" value="Text" style="text;html=1;align=center;verticalAlign=middle;whiteSpace=wrap;rounded=0;" vertex="1" parent="1">
          <mxGeometry x="410" y="330" width="60" height="30" as="geometry" />
        </mxCell>
        <mxCell id="JFBkRAcelTBhgvE8gBId-8" value="" style="rounded=0;whiteSpace=wrap;html=1;" vertex="1" parent="1">
          <mxGeometry x="480" y="260" width="80" height="60" as="geometry" />
        </mxCell>
        <mxCell id="JFBkRAcelTBhgvE8gBId-9" value="Text" style="text;html=1;align=center;verticalAlign=middle;whiteSpace=wrap;rounded=0;" vertex="1" parent="1">
          <mxGeometry x="490" y="275" width="60" height="30" as="geometry" />
        </mxCell>
        <mxCell id="JFBkRAcelTBhgvE8gBId-10" value="" style="rounded=0;whiteSpace=wrap;html=1;" vertex="1" parent="1">
          <mxGeometry x="485" y="340" width="70" height="20" as="geometry" />
        </mxCell>
        <mxCell id="JFBkRAcelTBhgvE8gBId-11" value="Text" style="text;html=1;align=center;verticalAlign=middle;whiteSpace=wrap;rounded=0;" vertex="1" parent="1">
          <mxGeometry x="495" y="345" width="60" height="10" as="geometry" />
        </mxCell>
      </root>
    </mxGraphModel>
  </diagram>
</mxfile>
